<svg enable-background="new 0 0 32 32" height="512" viewBox="0 0 32 32" width="512" xmlns="http://www.w3.org/2000/svg">
  <path fill="currentColor" d="m26 18.765v-.336c0-.185.074-.364.205-.494l1.979-1.982c1.074-1.076 1.074-2.828 0-3.904l-1.979-1.983c-.132-.133-.205-.309-.205-.496v-2.807c0-1.524-1.24-2.763-2.763-2.763h-2.808c-.187 0-.362-.072-.495-.205l-1.982-1.979c-1.076-1.074-2.828-1.072-3.905 0l-1.982 1.98c-.132.132-.307.204-.494.204h-2.808c-1.523 0-2.763 1.239-2.763 2.763v2.807c0 .187-.073.362-.205.495l-1.979 1.982c-1.074 1.076-1.074 2.828 0 3.905l1.979 1.981c.131.131.205.311.205.496v.336l-3.409 6.816c-.261.521-.233 1.13.073 1.626.308.497.839.793 1.422.793h2.884l1.734 2.323c.332.444.861.714 1.489.666.583-.052 1.086-.396 1.347-.919l2.127-4.266.379.379c1.077 1.074 2.829 1.075 3.905 0l.379-.379 2.127 4.266c.261.523.765.867 1.347.919.628.048 1.158-.223 1.488-.665l1.737-2.324h2.884c.583 0 1.115-.296 1.422-.793.307-.496.334-1.104.073-1.626zm-16.011 9.935-1.716-2.299c-.188-.252-.485-.401-.801-.401h-2.854l1.727-3.454c.469.861 1.371 1.454 2.418 1.454h2.808c.187 0 .362.072.495.205l.11.11zm5.471-3.932-1.981-1.978c-.509-.51-1.187-.79-1.908-.79h-2.808c-.421 0-.763-.343-.763-.764v-2.808c0-.711-.288-1.406-.79-1.908l-1.979-1.98c-.297-.298-.297-.782 0-1.08l1.979-1.981c.509-.51.79-1.188.79-1.909v-2.807c0-.421.342-.763.763-.763h2.808c.721 0 1.399-.28 1.908-.789l1.981-1.979c.298-.297.782-.297 1.08 0l1.981 1.979c.509.509 1.187.789 1.908.789h2.808c.421 0 .763.342.763.763v2.807c0 .721.281 1.398.79 1.907l1.979 1.982c.297.298.297.782 0 1.079l-1.979 1.981c-.502.503-.79 1.199-.79 1.91v2.808c0 .42-.342.763-.763.763h-2.808c-.721 0-1.399.28-1.908.789l-1.982 1.979c-.297.298-.781.296-1.079 0zm9.068 1.232c-.315 0-.613.149-.801.401l-1.716 2.299-2.187-4.385.111-.111c.132-.132.307-.204.494-.204h2.808c1.047 0 1.949-.593 2.418-1.454l1.727 3.454z"/>
  <path fill="currentColor" d="m23.366 11.819-7-2.75c-.235-.092-.496-.092-.731 0l-7 2.75c-.384.151-.635.52-.635.931s.251.78.634.931l2.366.929v3.202c0 .328.161.635.431.822.08.056 2 1.366 4.569 1.366 2.568 0 4.489-1.309 4.569-1.364.27-.187.431-.494.431-.823v-3.203l1-.393v.783c0 .553.448 1 1 1s1-.447 1-1v-2.25c0-.411-.251-.78-.634-.931zm-7.366-.745 4.265 1.676-4.265 1.676-4.265-1.676zm3 6.163c-.58.299-1.692.763-3 .763-1.31 0-2.42-.464-3-.763v-1.842l2.634 1.035c.235.092.492.093.731 0l2.635-1.034z"/>
</svg>
