<?xml version="1.0" encoding="UTF-8" standalone="no"?>
<svg version="1.1" xmlns="http://www.w3.org/2000/svg" width="682.66669" height="682.66669" viewBox="0 0 682.66669 682.66669">
  <defs>
    <clipPath id="clipPath2754"><path d="M 0,512 H 512 V 0 H 0 Z"/></clipPath>
  </defs>
  <g transform="matrix(1.3333333,0,0,-1.3333333,0,682.66667)">
    <g transform="translate(433.1738,430.4072)">
      <path d="M 0,0 V -35.024" style="fill:none;stroke:currentColor;stroke-width:15;stroke-linecap:round;stroke-linejoin:round;stroke-miterlimit:10"/>
    </g>
    <g clip-path="url(#clipPath2754)">
      <g transform="translate(296.7441,285.9673)">
        <path d="m 0,0 c 0,0 -12.643,11.85 -32.322,6.094 -18.071,-5.284 -22.746,-29.913 -10.574,-39.62 6.99,-5.574 17.537,-10.195 31.76,-15.352 31.833,-11.542 19.669,-56.469 -12.806,-56.424 -12.674,0.018 -18.592,0.87 -29.666,8.242" style="fill:none;stroke:currentColor;stroke-width:15;stroke-linecap:round;stroke-linejoin:round;stroke-miterlimit:10"/>
      </g>
      <g transform="translate(324.1543,88.3247)">
        <path d="M 0,0 H -142.654" style="fill:none;stroke:currentColor;stroke-width:15;stroke-linecap:round;stroke-linejoin:round;stroke-miterlimit:10"/>
      </g>
      <g transform="translate(72.4834,53.3149)">
        <path d="m 0,0 87.961,-32.74 c 9.519,-3.543 19.594,-5.358 29.751,-5.358 h 115.504 c 16.164,0 31.995,4.594 45.648,13.246 l 144.622,81.81 c 9.541,8.473 11.311,22.711 4.132,33.26 -7.854,11.543 -20.847,13.55 -35.143,6.789 L 251.671,35.01 l 0.166,22.844 c -1.865,18.751 -16.302,33.8 -34.959,36.439 l -85.746,9.873 c -19.779,2.799 -29.663,9.427 -46.906,19.514 -23.542,13.771 -50.325,21.029 -77.599,21.029 H 0" style="fill:none;stroke:currentColor;stroke-width:15;stroke-linecap:round;stroke-linejoin:round;stroke-miterlimit:10"/>
      </g>
      <g transform="translate(72.4834,39.9678)">
        <path d="M 0,0 C 0,-8.132 -6.592,-14.724 -14.724,-14.724 H -50.26 c -8.132,0 -14.723,6.592 -14.723,14.724 v 170.46 c 0,8.132 6.591,14.724 14.723,14.724 h 35.536 C -6.592,185.184 0,178.592 0,170.46 Z" style="fill:none;stroke:currentColor;stroke-width:15;stroke-linecap:round;stroke-linejoin:round;stroke-miterlimit:10"/>
      </g>
      <g transform="translate(387.8789,190.0039)">
        <path d="M 0,0 C 5.748,14.058 8.972,29.424 9.102,45.539 9.58,104.955 -32.143,154.87 -88.061,166.827" style="fill:none;stroke:currentColor;stroke-width:15;stroke-linecap:round;stroke-linejoin:round;stroke-miterlimit:10"/>
      </g>
      <g transform="translate(321.3271,122.9692)">
        <path d="M 0,0 C 19.196,8.016 35.939,20.76 48.761,36.788" style="fill:none;stroke:currentColor;stroke-width:15;stroke-linecap:round;stroke-linejoin:round;stroke-miterlimit:10"/>
      </g>
      <g transform="translate(161.3838,286.1992)">
        <path d="m 0,0 c -6.581,-14.896 -10.294,-31.352 -10.434,-48.672 -0.206,-25.549 7.393,-49.339 20.566,-69.112" style="fill:none;stroke:currentColor;stroke-width:15;stroke-linecap:round;stroke-linejoin:round;stroke-miterlimit:10"/>
      </g>
      <g transform="translate(248.1377,356.8306)">
        <path d="M 0,0 C -27.195,-5.812 -51.087,-20.62 -68.377,-41.181" style="fill:none;stroke:currentColor;stroke-width:15;stroke-linecap:round;stroke-linejoin:round;stroke-miterlimit:10"/>
      </g>
      <g transform="translate(173.3516,359.4521)">
        <path d="m 0,0 c -35.213,-28.855 -57.833,-72.554 -58.229,-121.637 -0.128,-15.888 2.092,-31.246 6.317,-45.757" style="fill:none;stroke:currentColor;stroke-width:15;stroke-linecap:round;stroke-linejoin:round;stroke-miterlimit:10"/>
      </g>
      <g transform="translate(364.8604,106.2485)">
        <path d="m 0,0 c 40.722,28.461 67.517,75.542 67.947,129.006 0.404,49.993 -22.34,94.768 -58.208,124.176" style="fill:none;stroke:currentColor;stroke-width:15;stroke-linecap:round;stroke-linejoin:round;stroke-miterlimit:10"/>
      </g>
      <g transform="translate(371.8389,356.8306)">
        <path d="m 0,0 h -195.724 c -1.535,0 -2.779,1.244 -2.779,2.779 v 42.674 c 0,7.382 4.643,13.967 11.596,16.447 l 15.206,5.423 c 23.64,8.432 48.523,13.055 73.622,13.078 1.45,0.001 2.9,-0.011 4.35,-0.037 23.728,-0.426 47.197,-5.022 69.551,-12.99 L -8.82,61.899 C -1.865,59.42 2.778,52.834 2.778,45.451 V 2.779 C 2.778,1.244 1.534,0 0,0 Z" style="fill:none;stroke:currentColor;stroke-width:15;stroke-linecap:round;stroke-linejoin:round;stroke-miterlimit:10"/>
      </g>
      <g transform="translate(374.5947,402.8716)">
        <path d="m 0,0 54.739,21.642 c 5.12,2.025 5.12,9.273 0,11.297 L -98.396,93.485 c -1.435,0.568 -3.032,0.568 -4.467,0 L -255.998,32.939 c -5.121,-2.024 -5.121,-9.272 0,-11.297 l 54.762,-21.651" style="fill:none;stroke:currentColor;stroke-width:15;stroke-linecap:round;stroke-linejoin:round;stroke-miterlimit:10"/>
      </g>
      <g transform="translate(443.1904,358.7603)">
        <path d="m 0,0 h -20.033 c -4.043,0 -7.087,3.68 -6.329,7.652 l 4.53,23.735 c 0.579,3.038 3.236,5.236 6.329,5.236 h 10.974 c 3.092,0 5.749,-2.198 6.329,-5.236 L 6.33,7.652 C 7.088,3.68 4.043,0 0,0 Z" style="fill:none;stroke:currentColor;stroke-width:15;stroke-linecap:round;stroke-linejoin:round;stroke-miterlimit:10"/>
      </g>
    </g>
  </g>
</svg>
