<?xml version="1.0" encoding="UTF-8" standalone="no"?>
<svg version="1.1" xmlns="http://www.w3.org/2000/svg" width="682.66669" height="682.66669" viewBox="0 0 682.66669 682.66669">
  <defs>
    <clipPath id="clipPath4214"><path d="M 0,512 H 512 V 0 H 0 Z"/></clipPath>
  </defs>
  <g transform="matrix(1.3333333,0,0,-1.3333333,0,682.66667)">
    <g clip-path="url(#clipPath4214)">
      <g transform="translate(230.8374,15.1748)">
        <path d="m 0,0 h -190.325 c -13.993,0 -25.338,11.345 -25.338,25.338 v 190.325 c 0,13.993 11.345,25.337 25.338,25.337 L 0,241 c 13.994,0 25.337,-11.344 25.337,-25.337 V 25.338 C 25.337,11.345 13.994,0 0,0 Z" style="fill:none;stroke:currentColor;stroke-width:30;stroke-linecap:round;stroke-linejoin:round;stroke-miterlimit:10"/>
      </g>
      <g transform="translate(376.6748,352.0615)">
        <path d="m 0,0 v -191.773 c 0,-13.594 -11.02,-24.614 -24.613,-24.614 H -120.5 v 95.163 c 0,13.994 -11.344,25.337 -25.337,25.337 H -241 V 0 c 0,13.594 11.02,24.613 24.613,24.613 H -24.613 C -11.02,24.613 0,13.594 0,0 Z" style="fill:none;stroke:currentColor;stroke-width:30;stroke-linecap:round;stroke-linejoin:round;stroke-miterlimit:10"/>
      </g>
      <g transform="translate(496.8252,472.2119)">
        <path d="m 0,0 v -191.773 c 0,-13.594 -11.02,-24.614 -24.613,-24.614 h -95.537 v 96.237 c 0,13.593 -11.02,24.613 -24.614,24.613 H -241 V 0 c 0,13.594 11.02,24.613 24.613,24.613 H -24.613 C -11.02,24.613 0,13.594 0,0 Z" style="fill:none;stroke:currentColor;stroke-width:30;stroke-linecap:round;stroke-linejoin:round;stroke-miterlimit:10"/>
      </g>
      <g transform="translate(69.6885,133.502)">
        <path d="m 0,0 42.542,-42.542 89.431,89.431" style="fill:none;stroke:currentColor;stroke-width:30;stroke-linecap:round;stroke-linejoin:round;stroke-miterlimit:10"/>
      </g>
    </g>
  </g>
</svg>
